<svg xmlns="http://www.w3.org/2000/svg" width="26.022" height="32.454" viewBox="0 0 26.022 32.454">
  <g id="Group_811" data-name="Group 811" transform="translate(1 1)">
    <ellipse id="Ellipse_26" data-name="Ellipse 26" cx="7.054" cy="8.451" rx="7.054" ry="8.451" transform="translate(4.954 0)" fill="none" stroke="#fff" strokeLinecap="round" strokeLinejoin="round" strokeWidth="2"/>
    <path id="Path_1166" data-name="Path 1166" d="M0,18.52A4.3,4.3,0,0,1,.348,16.8c.725-1.619,2.77-2.477,4.466-2.866a24,24,0,0,1,3.712-.583,35.567,35.567,0,0,1,6.946,0,24.274,24.274,0,0,1,3.712.583c1.7.389,3.741,1.166,4.466,2.866a4.44,4.44,0,0,1,0,3.448c-.725,1.7-2.77,2.477-4.466,2.849a22.478,22.478,0,0,1-3.712.6,36.655,36.655,0,0,1-5.655.1,5.782,5.782,0,0,1-1.291-.1,22.06,22.06,0,0,1-3.7-.6c-1.711-.372-3.741-1.149-4.481-2.849A4.427,4.427,0,0,1,0,18.52Z" transform="translate(0 6.59)" fill="none" stroke="#fff" strokeLinecap="round" strokeLinejoin="round" strokeWidth="2" fill-rule="evenodd"/>
  </g>
</svg>
