<svg xmlns="http://www.w3.org/2000/svg" width="40" height="41" viewBox="0 0 40 41">
  <g id="Group_830" data-name="Group 830" transform="translate(-0.607 0.384)">
    <g id="Layer_2" data-name="Layer 2" transform="translate(4.049 3.671)">
      <path id="Path_1202" data-name="Path 1202" d="M29.721,34.448H9.362A6.363,6.363,0,0,1,3,28.086V10.272A1.273,1.273,0,0,1,4.272,9H29.721a6.363,6.363,0,0,1,6.362,6.362V28.086A6.363,6.363,0,0,1,29.721,34.448ZM5.545,11.545V28.086A3.817,3.817,0,0,0,9.362,31.9H29.721a3.817,3.817,0,0,0,3.817-3.817V15.362a3.817,3.817,0,0,0-3.817-3.817Z" transform="translate(-3 -1.354)" fill="#fff"/>
      <path id="Path_1203" data-name="Path 1203" d="M32.266,13.182a1.273,1.273,0,0,1-1.272-1.272V8.41A2.962,2.962,0,0,0,30,6.031a2.468,2.468,0,0,0-2.125-.407L6.537,10.472a1.272,1.272,0,0,0-.992,1.272,1.272,1.272,0,0,1-2.545,0A3.817,3.817,0,0,1,5.965,7.99L27.316,3.142a4.959,4.959,0,0,1,4.275.9A5.521,5.521,0,0,1,33.538,8.41v3.5A1.273,1.273,0,0,1,32.266,13.182Z" transform="translate(-3 -2.991)" fill="#fff"/>
      <path id="Path_1204" data-name="Path 1204" d="M31,25.179H22.09A5.09,5.09,0,0,1,22.09,15H31a1.273,1.273,0,0,1,1.272,1.272v7.635A1.273,1.273,0,0,1,31,25.179ZM22.09,17.545a2.545,2.545,0,1,0,0,5.09h7.635v-5.09Z" transform="translate(0.814 0.281)" fill="#fff"/>
    </g>
    <g id="frame" transform="translate(0.607 -0.384)">
      <rect id="Rectangle_151" data-name="Rectangle 151" width="40" height="41" transform="translate(0.001 0)" fill="none"/>
    </g>
  </g>
</svg>
