<?xml version="1.0" encoding="UTF-8"?>
<svg id="SVGDoc" width="106" height="109" xmlns="http://www.w3.org/2000/svg" version="1.1" xmlnsXlink="http://www.w3.org/1999/xlink" xmlnsAvocode="https://avocode.com/" viewBox="0 0 106 109"><defs><radialGradient id="RadialGradient2252" gradientUnits="userSpaceOnUse" cx="61.48416578292836" cy="75.18381326675416" r="14.40038017169627"><stop stop-opacity="1" stop-color="#ffffff" offset="0"></stop><stop stop-opacity="1" stop-color="#f5f5f5" offset="0.08"></stop><stop stop-opacity="1" stop-color="#dcdcdc" offset="0.22"></stop><stop stop-opacity="1" stop-color="#cacaca" offset="0.31"></stop><stop stop-opacity="1" stop-color="#b5b5b5" offset="0.4"></stop><stop stop-opacity="1" stop-color="#818181" offset="0.59"></stop><stop stop-opacity="1" stop-color="#2f2f2f" offset="0.86"></stop><stop stop-opacity="1" stop-color="#000000" offset="1"></stop></radialGradient><linearGradient id="LinearGradient2266" gradientUnits="userSpaceOnUse" x1="61.75999999999999" y1="81.44999999999999" x2="61.75999999999999" y2="66.01999999999998"><stop stop-opacity="1" stop-color="#55fbff" offset="0"></stop><stop stop-opacity="1" stop-color="#51f7fd" offset="0.28"></stop><stop stop-opacity="1" stop-color="#48eef9" offset="0.49"></stop><stop stop-opacity="1" stop-color="#38def1" offset="0.68"></stop><stop stop-opacity="1" stop-color="#21c7e7" offset="0.85"></stop><stop stop-opacity="1" stop-color="#0ab0dd" offset="0.99"></stop></linearGradient><linearGradient id="LinearGradient2283" gradientUnits="userSpaceOnUse" x1="47.68999999999983" y1="62.45999999999998" x2="75.76999999999998" y2="62.45999999999998"><stop stop-opacity="1" stop-color="#f94e41" offset="0.01"></stop><stop stop-opacity="1" stop-color="#f2473a" offset="0.12"></stop><stop stop-opacity="1" stop-color="#d62d20" offset="0.68"></stop><stop stop-opacity="1" stop-color="#cc2417" offset="1"></stop></linearGradient><linearGradient id="LinearGradient2304" gradientUnits="userSpaceOnUse" x1="16.829999999999927" y1="61.06" x2="36.429999999999836" y2="61.06"><stop stop-opacity="1" stop-color="#ff871a" offset="0.01"></stop><stop stop-opacity="1" stop-color="#fd7c21" offset="0.27"></stop><stop stop-opacity="1" stop-color="#fa6034" offset="0.73"></stop><stop stop-opacity="1" stop-color="#f94e41" offset="0.99"></stop></linearGradient><linearGradient id="LinearGradient2328" gradientUnits="userSpaceOnUse" x1="0.2699999999999818" y1="61.06" x2="19.86999999999989" y2="61.06"><stop stop-opacity="1" stop-color="#ff871a" offset="0.01"></stop><stop stop-opacity="1" stop-color="#fd7c21" offset="0.27"></stop><stop stop-opacity="1" stop-color="#fa6034" offset="0.73"></stop><stop stop-opacity="1" stop-color="#f94e41" offset="0.99"></stop></linearGradient><radialGradient id="RadialGradient2352" gradientUnits="userSpaceOnUse" cx="48.63109878718842" cy="18.181606902480127" r="48.36527253270148"><stop stop-opacity="1" stop-color="#ffe6dc" offset="0"></stop><stop stop-opacity="1" stop-color="#f4dcdd" offset="0.16"></stop><stop stop-opacity="1" stop-color="#d8c4df" offset="0.44"></stop><stop stop-opacity="1" stop-color="#ab9ce4" offset="0.81"></stop><stop stop-opacity="1" stop-color="#9185e7" offset="0.99"></stop></radialGradient><linearGradient id="LinearGradient2365" gradientUnits="userSpaceOnUse" x1="60.07999999999993" y1="41.08000000000004" x2="61.559999999999945" y2="41.08000000000004"><stop stop-opacity="1" stop-color="#ffffff" offset="0"></stop><stop stop-opacity="1" stop-color="#ece9f9" offset="0.16"></stop><stop stop-opacity="1" stop-color="#c5bcee" offset="0.54"></stop><stop stop-opacity="1" stop-color="#ada0e7" offset="0.83"></stop><stop stop-opacity="1" stop-color="#a496e5" offset="1"></stop></linearGradient><linearGradient id="LinearGradient2378" gradientUnits="userSpaceOnUse" x1="27.170000000000073" y1="22.19999999999999" x2="48.16000000000008" y2="22.19999999999999"><stop stop-opacity="1" stop-color="#ffffff" offset="0"></stop><stop stop-opacity="1" stop-color="#ece9f9" offset="0.16"></stop><stop stop-opacity="1" stop-color="#c5bcee" offset="0.54"></stop><stop stop-opacity="1" stop-color="#ada0e7" offset="0.83"></stop><stop stop-opacity="1" stop-color="#a496e5" offset="1"></stop></linearGradient><linearGradient id="LinearGradient2391" gradientUnits="userSpaceOnUse" x1="74.70000000000005" y1="18.45999999999998" x2="92.8900000000001" y2="18.45999999999998"><stop stop-opacity="1" stop-color="#ffffff" offset="0"></stop><stop stop-opacity="1" stop-color="#ece9f9" offset="0.16"></stop><stop stop-opacity="1" stop-color="#c5bcee" offset="0.54"></stop><stop stop-opacity="1" stop-color="#ada0e7" offset="0.83"></stop><stop stop-opacity="1" stop-color="#a496e5" offset="1"></stop></linearGradient><linearGradient id="LinearGradient2404" gradientUnits="userSpaceOnUse" x1="34.83999999999992" y1="21.49000000000001" x2="85.31999999999994" y2="21.49000000000001"><stop stop-opacity="1" stop-color="#ffffff" offset="0"></stop><stop stop-opacity="1" stop-color="#ece9f9" offset="0.16"></stop><stop stop-opacity="1" stop-color="#c5bcee" offset="0.54"></stop><stop stop-opacity="1" stop-color="#ada0e7" offset="0.83"></stop><stop stop-opacity="1" stop-color="#a496e5" offset="1"></stop></linearGradient><linearGradient id="LinearGradient2415" gradientUnits="userSpaceOnUse" x1="59.710000000000036" y1="36.10000000000002" x2="59.710000000000036" y2="-3.8400000000000034"><stop stop-opacity="1" stop-color="#826ccf" offset="0.01"></stop><stop stop-opacity="1" stop-color="#ab94d3" offset="0.21"></stop><stop stop-opacity="1" stop-color="#d8c0d7" offset="0.46"></stop><stop stop-opacity="1" stop-color="#f4dbda" offset="0.66"></stop><stop stop-opacity="1" stop-color="#ffe6dc" offset="0.77"></stop></linearGradient><linearGradient id="LinearGradient2428" gradientUnits="userSpaceOnUse" x1="43.61999999999989" y1="17.24000000000001" x2="83.55999999999995" y2="17.24000000000001"><stop stop-opacity="1" stop-color="#ffffff" offset="0"></stop><stop stop-opacity="1" stop-color="#ece9f9" offset="0.16"></stop><stop stop-opacity="1" stop-color="#c5bcee" offset="0.54"></stop><stop stop-opacity="1" stop-color="#ada0e7" offset="0.83"></stop><stop stop-opacity="1" stop-color="#a496e5" offset="1"></stop></linearGradient><linearGradient id="LinearGradient2439" gradientUnits="userSpaceOnUse" x1="59.700000000000045" y1="35.18000000000001" x2="59.700000000000045" y2="-2.9099999999999966"><stop stop-opacity="1" stop-color="#ffe6dc" offset="0"></stop><stop stop-opacity="1" stop-color="#f2dada" offset="0.07"></stop><stop stop-opacity="1" stop-color="#c2aad5" offset="0.37"></stop><stop stop-opacity="1" stop-color="#9f88d2" offset="0.64"></stop><stop stop-opacity="1" stop-color="#8973cf" offset="0.85"></stop><stop stop-opacity="1" stop-color="#826ccf" offset="0.99"></stop></linearGradient><linearGradient id="LinearGradient2456" gradientUnits="userSpaceOnUse" x1="59.69999999999982" y1="31.75" x2="59.69999999999982" y2="0.5099999999999909"><stop stop-opacity="1" stop-color="#ffee2f" offset="0.01"></stop><stop stop-opacity="1" stop-color="#ffda2b" offset="0.15"></stop><stop stop-opacity="1" stop-color="#ffad21" offset="0.53"></stop><stop stop-opacity="1" stop-color="#ff911c" offset="0.82"></stop><stop stop-opacity="1" stop-color="#ff871a" offset="0.99"></stop></linearGradient><linearGradient id="LinearGradient2474" gradientUnits="userSpaceOnUse" x1="59.710000000000036" y1="20.849999999999994" x2="59.710000000000036" y2="0.5099999999999909"><stop stop-opacity="1" stop-color="#ffffff" offset="0"></stop><stop stop-opacity="1" stop-color="#ffeedd" offset="0.15"></stop><stop stop-opacity="1" stop-color="#ffd09f" offset="0.44"></stop><stop stop-opacity="1" stop-color="#ffba71" offset="0.69"></stop><stop stop-opacity="1" stop-color="#ffad55" offset="0.88"></stop><stop stop-opacity="1" stop-color="#ffa84b" offset="0.99"></stop></linearGradient><linearGradient id="LinearGradient2510" gradientUnits="userSpaceOnUse" x1="60.61999999999989" y1="72.33999999999997" x2="64.22999999999979" y2="72.33999999999997"><stop stop-opacity="1" stop-color="#ffffff" offset="0"></stop><stop stop-opacity="1" stop-color="#ffeedd" offset="0.15"></stop><stop stop-opacity="1" stop-color="#ffd09f" offset="0.44"></stop><stop stop-opacity="1" stop-color="#ffba71" offset="0.69"></stop><stop stop-opacity="1" stop-color="#ffad55" offset="0.88"></stop><stop stop-opacity="1" stop-color="#ffa84b" offset="0.99"></stop></linearGradient></defs><desc>Generated with Avocode.</desc><g><g transform="rotate(40.99999910561366 60.094999999999914 47.715)" opacity="0.5"><title>Group 25</title><g><title>Path 52</title><path d="M48.59105,68.58794v0c0,0 -2.11536,10.84015 -0.76929,15.30377l5.19263,-5.10132v0l8.84644,15.09119v0l8.46204,-14.66614v0l5.38489,5.10132v0c0,0 1.92297,-7.22675 -2.1156,-15.51617c-4.03857,-8.28967 -25.0011,-0.21265 -25.0011,-0.21265v0z" fill="url(#RadialGradient2252)"></path></g><g><title>Path 53</title><path d="M53.54448,67.90648v0c0,0 -1.32043,5.80463 -0.48035,8.19489l3.24097,-2.73169v0l5.52136,8.08093v0l5.28162,-7.85327v0l3.36084,2.73151v0c0,0 1.20032,-3.86969 -1.32031,-8.30847c-2.52075,-4.4389 -15.60413,-0.11389 -15.60413,-0.11389v0z" fill="url(#LinearGradient2266)"></path></g><g><title>Path 54</title><path d="M55.4336,67.48039v0c0,0 -0.97839,4.30176 -0.35571,6.07318l2.40173,-2.02454v0l4.09192,5.98901v0l3.91431,-5.82019v0l2.49072,2.02441v0c0,0 0.88953,-2.86792 -0.97852,-6.15759c-1.86816,-3.28967 -11.56445,-0.08429 -11.56445,-0.08429v0z" fill="#e1ffff" fill-opacity="1"></path></g><g><title>Path 55</title><path d="M75.68819,69.0956c-1.47852,0.66229 -3.02869,1.19135 -4.6145,1.56506c-10.9209,2.74878 -23.46594,-0.35468 -23.46594,-0.35468v0l1.45898,-8.7923v0l1.1167,-8.00745v0l22.73071,-0.23706v0z" fill="url(#LinearGradient2283)"></path></g><g><title>Group 10</title><g><title>Path 56</title><path d="M75.68811,69.0956c-1.47839,0.66229 -3.02856,1.19135 -4.61438,1.56506c-6.7804,-4.36432 -18.24524,-8.00684 -22.00696,-9.14697l1.1167,-8.00745v0l22.73071,-0.23706v0z" fill="#9185e7" fill-opacity="1"></path></g></g><g><title>Group 15</title><g><title>Group 12</title><g><title>Path 57</title><path d="M36.43396,52.47498v0l-4.1936,12.93552v0l-9.65186,29.75433v0c0,0 -14.73291,-35.34576 2.95105,-63.05856c1.08716,-1.75302 2.32983,-3.4614 3.70544,-5.14767z" fill="url(#LinearGradient2304)"></path></g><g><title>Path 58</title><path d="M30.14972,30.18808v0l-0.91577,-3.24054c-23.29761,28.28992 -6.65649,68.22852 -6.65649,68.22852v0l0.0293,-0.09076c-2.63721,-9.17218 -9.92822,-41.01819 7.54297,-64.89722z" fill="#ffc82c" fill-opacity="1"></path></g><g><title>Group 11</title><g><title>Path 59</title><path d="M36.43402,52.47499v0l-4.19366,12.93552c-0.3327,-11.49356 -4.79254,-27.13608 -6.70081,-33.30423c1.08722,-1.75302 2.3299,-3.4614 3.70551,-5.14767z" fill="#9185e7" fill-opacity="1"></path></g></g></g><g><title>Group 14</title><g><title>Path 60</title><path d="M83.75346,52.47498v0l4.1936,12.93552v0l9.65173,29.75433v0c0,0 14.73291,-35.34576 -2.95093,-63.05856c-1.08728,-1.75302 -2.32971,-3.4614 -3.70557,-5.14767z" fill="url(#LinearGradient2328)"></path></g><g><title>Path 61</title><path d="M90.03764,30.18808v0l0.91577,-3.24054c23.29761,28.28992 6.65649,68.22852 6.65649,68.22852v0l-0.0293,-0.09076c2.63708,-9.17218 9.92822,-41.01819 -7.54297,-64.89722z" fill="#ffc82c" fill-opacity="1"></path></g><g><title>Group 13</title><g><title>Path 62</title><path d="M83.75346,52.47499v0l4.1936,12.93552c0.33276,-11.49356 4.79272,-27.13608 6.70081,-33.30423c-1.08728,-1.75302 -2.32971,-3.4614 -3.70557,-5.14767z" fill="#9185e7" fill-opacity="1"></path></g></g></g></g><g><title>Group 22</title><g><title>Path 63</title><path d="M93.09833,29.27358c0,12.98001 -7.12231,24.25162 -17.59497,29.90955c-3.92737,2.15227 -8.36499,3.48355 -13.04663,3.81633c-0.28845,0.04446 -0.59912,0.04446 -0.8877,0.06659c-0.19958,0.02225 -0.37695,0.02225 -0.55469,0.02225c-0.31067,0.02223 -0.62122,0.02223 -0.93176,0.02223c-6.2793,0 -12.15918,-1.81949 -17.17371,-4.97025c-5.9021,-3.68333 -10.58362,-9.23029 -13.29065,-15.84233c-1.15369,-2.86232 -1.95251,-5.92421 -2.30762,-9.11932c-0.06665,-0.53249 -0.11084,-1.06509 -0.13306,-1.61969c-0.06665,-0.75441 -0.08862,-1.50883 -0.08862,-2.28535c0,-18.7048 14.7771,-33.83696 32.99365,-33.83696c16.53003,0 30.22022,12.42542 32.63867,28.66715c0.06665,0.55472 0.13306,1.06496 0.17749,1.59743c0.13318,1.17606 0.19958,2.37422 0.19958,3.57239z" fill="url(#RadialGradient2352)"></path></g><g><title>Group 16</title><g><title>Path 64</title><path d="M61.56181,63.05852c-0.19983,0.02228 -0.3772,0.02228 -0.55469,0.02228l-0.93201,-43.9769v0l0.55469,-0.02225v0z" fill="url(#LinearGradient2365)"></path></g></g><g><title>Group 17</title><g><title>Path 65</title><path d="M48.16008,11.22709v0v0.55472c-0.17731,0 -15.57605,0.28854 -20.85669,21.38944c-0.06671,-0.53247 -0.11108,-1.06494 -0.13324,-1.61969c5.70245,-20.05829 20.81262,-20.32446 20.98993,-20.32446z" fill="url(#LinearGradient2378)"></path></g></g><g><title>Group 18</title><g><title>Path 66</title><path d="M92.89138,25.69383c-6.52319,-13.69006 -18.06116,-13.91202 -18.19434,-13.91202v-0.55472c0.13318,0 11.24951,0.19983 18.01685,12.86905c0.06665,0.55472 0.13306,1.06522 0.17749,1.59769z" fill="url(#LinearGradient2391)"></path></g></g><g><title>Group 19</title><g><title>Path 67</title><path d="M84.76336,21.49287c0,13.95751 -11.07373,25.31377 -24.68457,25.31377c-13.61071,0 -24.68414,-11.35627 -24.68414,-25.31377c0,-13.9575 11.07342,-25.31366 24.68414,-25.31366c13.61084,0 24.68457,11.35616 24.68457,25.31366zM85.3178,21.49287c0,-14.2641 -11.32263,-25.86838 -25.23901,-25.86838c-13.91626,0 -25.23889,11.60428 -25.23889,25.86838c0,14.26422 11.32263,25.8685 25.23889,25.8685c13.91638,0 25.23901,-11.60428 25.23901,-25.8685z" fill="url(#LinearGradient2404)"></path></g></g><g transform="rotate(-45.00000000000001 59.710000000000036 16.13000000000001)"><title>Ellipse 1</title><path d="M39.73976,16.13075c0,-11.02874 8.94056,-19.9693 19.9693,-19.9693c11.02874,0 19.9693,8.94056 19.9693,19.9693c0,11.02874 -8.94056,19.9693 -19.9693,19.9693c-11.02874,0 -19.9693,-8.94056 -19.9693,-19.9693z" fill="url(#LinearGradient2415)"></path></g><g><title>Group 20</title><g transform="rotate(-45.00000000000001 63.58999999999992 17.239999999999995)"><title>Ellipse 2</title><path d="M43.62266,17.24016c0,-11.02875 8.94057,-19.96931 19.96931,-19.96931c11.02875,0 19.96931,8.94057 19.96931,19.96931c0,11.02875 -8.94057,19.96931 -19.96931,19.96931c-11.02875,0 -19.96931,-8.94057 -19.96931,-19.96931z" fill="url(#LinearGradient2428)"></path></g></g><g transform="rotate(-45.00000000000001 59.70500000000004 16.135000000000005)"><title>Ellipse 3</title><path d="M40.66424,16.13076c0,-10.51816 8.52666,-19.04482 19.04482,-19.04482c10.51816,0 19.04482,8.52666 19.04482,19.04482c0,10.51816 -8.52666,19.04482 -19.04482,19.04482c-10.51816,0 -19.04482,-8.52666 -19.04482,-19.04482z" fill="url(#LinearGradient2439)"></path></g><g><title>Path 68</title><path d="M42.90888,58.14029c-5.9021,-3.68338 -10.58368,-9.23032 -13.29065,-15.84235c3.1286,-18.43823 14.00073,-20.05804 14.00073,-20.05804v0l4.99219,7.76584c-7.83228,5.7468 -7.23322,19.03732 -5.70227,28.13455z" fill="#ffffff" fill-opacity="1"></path></g><g transform="rotate(-45.00000000000001 59.70499999999993 16.129999999999995)"><title>Ellipse 4</title><path d="M44.08493,16.13075c0,-8.62897 6.99516,-15.62414 15.62414,-15.62414c8.62897,0 15.62414,6.99516 15.62414,15.62414c0,8.62897 -6.99516,15.62414 -15.62414,15.62414c-8.62897,0 -15.62414,-6.99516 -15.62414,-15.62414z" fill="url(#LinearGradient2456)"></path></g><g><title>Path 69</title><path d="M59.7088,30.2756c-8.37891,0 -15.19775,-6.60159 -15.58643,-14.88467c-0.01184,0.24698 -0.03748,0.49002 -0.03748,0.73965c0,8.62909 6.99512,15.62436 15.6239,15.62436c8.62915,0 15.62427,-6.99527 15.62427,-15.62436c0,-0.24963 -0.02563,-0.49268 -0.03735,-0.73965c-0.38892,8.28308 -7.2074,14.88467 -15.58691,14.88467z" fill="#ffffff" fill-opacity="1"></path></g><g><title>Group 21</title><g><title>Path 70</title><path d="M59.70884,9.93651c6.98523,0 12.89673,4.58548 14.89661,10.90923c0.47058,-1.48824 0.72766,-3.0713 0.72766,-4.71513c0,-8.62881 -6.99512,-15.62408 -15.62427,-15.62408c-8.62878,0 -15.6239,6.99527 -15.6239,15.62408c0,1.64383 0.25696,3.2269 0.72766,4.71513c2,-6.32375 7.91138,-10.90923 14.89624,-10.90923z" fill="url(#LinearGradient2474)"></path></g></g><g><title>Path 71</title><path d="M57.72199,25.79181c-0.6637,1.14975 -2.67151,1.23312 -4.4845,0.18649c-1.81299,-1.04678 -2.74451,-2.82739 -2.08069,-3.97699c0.6637,-1.14975 2.67139,-1.23312 4.4845,-0.18649c1.81299,1.04678 2.74451,2.82739 2.08069,3.97699z" fill="#ffffff" fill-opacity="1"></path></g><g><title>Path 72</title><path d="M51.18219,19.50766c-0.27612,0.47815 -1.11108,0.51288 -1.86523,0.07751c-0.75403,-0.43536 -1.14148,-1.17593 -0.86548,-1.65411c0.27612,-0.47809 1.11133,-0.51291 1.86523,-0.07742c0.75391,0.43536 1.1416,1.17581 0.86548,1.65402z" fill="#ffffff" fill-opacity="1"></path></g></g><g><title>Group 23</title><g><title>Path 73</title><path d="M75.5033,59.18314c-3.92725,2.15222 -8.36499,3.48352 -13.04663,3.81628l-1.39783,-18.17206v0z" fill="#9d99b5" fill-opacity="1"></path></g></g><g><title>Path 74</title><path d="M61.05881,99.60985v0v0.37714v0c0,0 -0.02209,-0.31055 -0.08862,-0.90961l-0.02246,-0.31067c-0.70972,-7.21124 -4.19336,-43.97675 -3.37244,-51.47638c0,0 1.70837,-1.95251 3.03992,-2.46295v-0.13312c0.06641,0.02209 0.15527,0.04437 0.22168,0.06653c0.06665,-0.02216 0.1554,-0.04443 0.22192,-0.06653v0.13312c1.3313,0.51044 3.03979,2.46295 3.03979,2.46295c0.90979,8.32056 -3.03979,52.31952 -3.03979,52.31952z" fill="#ffc82c" fill-opacity="1"></path></g><g><title>Group 24</title><g><title>Path 75</title><path d="M61.05884,99.60986v0v0.37714v0c0,0 -0.02209,-0.31055 -0.08862,-0.90961l-0.02246,-0.31067v0l-0.33264,-53.93933v0v-0.13312c0.06641,0.02209 0.15527,0.04437 0.2218,0.06653c0.06665,-0.02216 0.15527,-0.04443 0.22192,-0.06653v0.13312c1.3313,0.51044 3.03979,2.46295 3.03979,2.46295c0.90979,8.32056 -3.03979,52.31952 -3.03979,52.31952z" fill="url(#LinearGradient2510)"></path></g></g></g></g></svg>